<svg width="19" height="23" viewBox="0 0 19 23" 
  xmlns="http://www.w3.org/2000/svg">
  <path d="M18.2673 3.10898C18.2673 3.00464 18.264 2.89965 18.2576 2.79531C18.2492 2.59784 18.1988 2.4044 18.1096 2.22784C18.0205 2.05128 17.8947 1.89563 17.7406 1.77122C17.4421 1.52003 17.0944 1.43694 16.7067 1.43823C14.8733 1.44339 13.04 1.43823 11.2061 1.44403C11.0387 1.44403 10.9605 1.39894 10.8888 1.23664C10.7829 1.00336 10.6462 0.78523 10.4823 0.588046C10.2122 0.257633 9.82252 0.114646 9.4238 0H8.84221C8.80703 0.0178225 8.77051 0.0328966 8.733 0.045086C8.07127 0.205462 7.61633 0.607369 7.37594 1.23599C7.31132 1.40474 7.22731 1.44467 7.06059 1.44403C5.23524 1.43802 3.40968 1.43694 1.5839 1.44081C0.587438 1.44081 0.00131962 2.02048 0.000673402 3.01301C0.000673402 9.14767 0.000673402 15.2823 0.000673402 21.417C-0.00387008 21.5938 0.014593 21.7705 0.0556017 21.9426C0.234604 22.6092 0.791642 22.9995 1.54836 22.9995H16.7874C17.0268 23.0059 17.2639 22.9522 17.477 22.8434C17.6901 22.7345 17.8723 22.574 18.0068 22.3767C18.2324 22.0675 18.2692 21.712 18.2686 21.3429C18.2673 15.2649 18.2668 9.18696 18.2673 3.10898ZM10.702 15.9442C10.7456 15.8988 10.798 15.8626 10.8561 15.8379C10.9141 15.8132 10.9766 15.8004 11.0397 15.8004C11.1028 15.8004 11.1652 15.8132 11.2233 15.8379C11.2813 15.8626 11.3337 15.8988 11.3773 15.9442C11.7185 16.274 12.0449 16.6199 12.4074 16.9902L13.3864 15.5307C13.5964 15.2171 13.7993 14.8976 14.0197 14.5904C14.2284 14.2999 14.6013 14.2715 14.8087 14.5195C14.883 14.596 14.9275 14.6964 14.9341 14.8027C14.9408 14.909 14.9091 15.0141 14.8449 15.0992C14.1935 16.0718 13.5387 17.0447 12.8804 18.0182C12.8413 18.0753 12.7899 18.123 12.73 18.1578C12.6701 18.1927 12.6032 18.2138 12.5341 18.2197C12.465 18.2255 12.3954 18.216 12.3305 18.1917C12.2655 18.1674 12.2068 18.1291 12.1586 18.0794C11.6597 17.5984 11.1692 17.1096 10.6872 16.6128C10.6429 16.5685 10.6082 16.5158 10.5849 16.4578C10.5616 16.3999 10.5504 16.3378 10.5517 16.2753C10.5531 16.2129 10.5672 16.1514 10.593 16.0945C10.6188 16.0376 10.6559 15.9865 10.702 15.9442V15.9442ZM10.6923 9.72369C10.8939 9.51952 11.1815 9.5163 11.4032 9.73271C11.7379 10.0547 12.0623 10.3922 12.4145 10.7458L13.8859 8.54631C13.9325 8.4712 13.983 8.39853 14.0371 8.32861C14.222 8.10383 14.5128 8.05617 14.726 8.21139C14.9393 8.36661 14.991 8.64163 14.8242 8.89411C14.5095 9.37009 14.1877 9.8422 13.8698 10.3162L12.9166 11.7403C12.7227 12.0308 12.3861 12.0759 12.1327 11.8292C11.6541 11.3629 11.1802 10.8906 10.7111 10.4122C10.503 10.1964 10.5017 9.91434 10.6923 9.72112V9.72369ZM3.84954 9.58457C5.41467 9.58457 6.98024 9.58457 8.54624 9.58457C8.59459 9.58371 8.64295 9.58608 8.69099 9.59165C8.97145 9.62966 9.14787 9.83447 9.13106 10.1011C9.11491 10.3588 8.92621 10.5378 8.64705 10.5397C7.83217 10.5455 7.01664 10.5397 6.20176 10.5397H3.85342C3.50317 10.5397 3.28798 10.351 3.29315 10.0528C3.29832 9.7662 3.51027 9.58199 3.84954 9.58199V9.58457ZM3.84954 15.8154C5.41467 15.8154 6.98024 15.8154 8.54624 15.8154C8.92104 15.8154 9.13817 15.9996 9.13365 16.3043C9.12912 16.6089 8.92234 16.7699 8.55205 16.7706C7.76927 16.7706 6.98649 16.7706 6.2037 16.7706H3.85535C3.5051 16.7706 3.28927 16.5844 3.29379 16.2862C3.29767 15.997 3.51027 15.8154 3.8476 15.8154H3.84954ZM6.26057 2.86938C6.26049 2.80815 6.27253 2.74751 6.29602 2.69093C6.31951 2.63435 6.35398 2.58295 6.39745 2.53968C6.44092 2.49642 6.49254 2.46213 6.54934 2.4388C6.60614 2.41547 6.667 2.40354 6.72843 2.40371H7.53039C7.98274 2.40371 8.11586 2.28584 8.17143 1.83756C8.23605 1.30942 8.63412 0.958393 9.15627 0.96741C9.65838 0.975783 10.0396 1.34033 10.0933 1.86333C10.1081 2.01011 10.1766 2.14632 10.2858 2.24589C10.395 2.34547 10.5372 2.40143 10.6852 2.40307C10.967 2.40307 11.2487 2.40307 11.5343 2.40307C11.5959 2.4029 11.6568 2.41484 11.7137 2.4382C11.7706 2.46157 11.8222 2.4959 11.8658 2.53923C11.9093 2.58256 11.9438 2.63402 11.9673 2.69068C11.9909 2.74734 12.0029 2.80807 12.0029 2.86938V2.86938C12.0029 2.99288 11.9536 3.11133 11.866 3.19866C11.7784 3.28599 11.6595 3.33505 11.5356 3.33505H6.72779C6.60387 3.33505 6.48503 3.28599 6.39741 3.19866C6.30979 3.11133 6.26057 2.99288 6.26057 2.86938V2.86938Z"/>
</svg>
