<svg width="10" height="4" viewBox="0 0 10 4" xmlns="http://www.w3.org/2000/svg">
<path d="M4.55279 0.105573C5.04676 -0.141416 5.64744 0.0588079 5.89443 0.552786C6.14142 1.04676 5.94119 1.64744 5.44721 1.89443L4.55279 0.105573ZM1.44721 3.89443C0.953235 4.14142 0.352562 3.94119 0.105573 3.44721C-0.141416 2.95324 0.0588079 2.35256 0.552786 2.10557L1.44721 3.89443ZM4.55279 1.89443C4.05881 1.64744 3.85858 1.04676 4.10557 0.552786C4.35256 0.0588079 4.95324 -0.141416 5.44721 0.105573L4.55279 1.89443ZM9.44721 2.10557C9.94119 2.35256 10.1414 2.95324 9.89443 3.44721C9.64744 3.94119 9.04676 4.14142 8.55279 3.89443L9.44721 2.10557ZM5.44721 1.89443L1.44721 3.89443L0.552786 2.10557L4.55279 0.105573L5.44721 1.89443ZM5.44721 0.105573L9.44721 2.10557L8.55279 3.89443L4.55279 1.89443L5.44721 0.105573Z"/>
</svg>
