<svg width="10" height="20" viewBox="0 0 10 20" fill="none" 
  xmlns="http://www.w3.org/2000/svg">
  <path d="M9.6 8.8C10.2627 9.68366 10.0837 10.9373 9.2 11.6C8.31634 12.2627 7.06274 12.0837 6.4 11.2L9.6 8.8ZM0.4 3.2C-0.262742 2.31634 -0.0836556 1.06274 0.8 0.4C1.68366 -0.262742 2.93726 -0.0836556 3.6 0.8L0.4 3.2ZM6.4 8.8C7.06274 7.91634 8.31634 7.73726 9.2 8.4C10.0837 9.06274 10.2627 10.3163 9.6 11.2L6.4 8.8ZM3.6 19.2C2.93726 20.0837 1.68366 20.2627 0.8 19.6C-0.0836556 18.9373 -0.262742 17.6837 0.4 16.8L3.6 19.2ZM6.4 11.2L0.4 3.2L3.6 0.8L9.6 8.8L6.4 11.2ZM9.6 11.2L3.6 19.2L0.4 16.8L6.4 8.8L9.6 11.2Z" fill="white"/>
</svg>
