<svg width="18" height="16" viewBox="0 0 18 16" fill="none" xmlns="http://www.w3.org/2000/svg">
<path d="M10.8259 6.66544H1.36032C0.609038 6.66544 0 7.27332 0 8.02319V14.6422C0 15.3921 0.609038 16 1.36032 16H10.8259C11.5772 16 12.1862 15.3921 12.1862 14.6422V8.02319C12.1862 7.27332 11.5772 6.66544 10.8259 6.66544Z" fill="black" fill-opacity="0.5"/>
<path d="M16.2865 7.56383L13.5466 9.32439V13.2845L16.2791 15.0779C16.4159 15.1676 16.5744 15.2187 16.7379 15.2258C16.9014 15.2329 17.0638 15.1958 17.2078 15.1182C17.3519 15.0407 17.4722 14.9257 17.5561 14.7854C17.64 14.6451 17.6842 14.4848 17.6842 14.3215V8.32474C17.6842 8.16216 17.6403 8.00259 17.5571 7.86279C17.4739 7.723 17.3546 7.60815 17.2116 7.5303C17.0686 7.45245 16.9072 7.41448 16.7444 7.42038C16.5816 7.42628 16.4235 7.47583 16.2865 7.56383Z" fill="black" fill-opacity="0.5"/>
<path d="M9.46561 5.20472C10.9056 5.20472 12.0729 4.03961 12.0729 2.60236C12.0729 1.16512 10.9056 0 9.46561 0C8.02564 0 6.85832 1.16512 6.85832 2.60236C6.85832 4.03961 8.02564 5.20472 9.46561 5.20472Z" fill="black" fill-opacity="0.5"/>
<path d="M2.6646 5.25112C3.79153 5.25112 4.70509 4.33929 4.70509 3.21449C4.70509 2.08969 3.79153 1.17786 2.6646 1.17786C1.53767 1.17786 0.624115 2.08969 0.624115 3.21449C0.624115 4.33929 1.53767 5.25112 2.6646 5.25112Z" fill="black" fill-opacity="0.5"/>
</svg>
