<svg width="19" height="16" viewBox="0 0 19 16" 
  xmlns="http://www.w3.org/2000/svg">
  <path d="M9.26316 0C9.15179 1.42852e-05 9.04154 0.0221175 8.93877 0.0650302C8.83601 0.107943 8.74278 0.170812 8.66447 0.25L0.171053 7.66118C0.118008 7.70033 0.0748943 7.75138 0.0451843 7.81023C0.0154742 7.86907 -2.5328e-06 7.93408 3.10898e-10 8C3.10898e-10 8.11167 0.0443608 8.21877 0.123323 8.29773C0.202286 8.37669 0.309383 8.42105 0.421053 8.42105H2.52632V15.1579C2.52632 15.6227 2.90358 16 3.36842 16H6.73684C7.20168 16 7.57895 15.6227 7.57895 15.1579V10.1053H10.9474V15.1579C10.9474 15.6227 11.3246 16 11.7895 16H15.1579C15.6227 16 16 15.6227 16 15.1579V8.42105H18.1053C18.2169 8.42105 18.324 8.37669 18.403 8.29773C18.482 8.21877 18.5263 8.11167 18.5263 8C18.5263 7.93408 18.5108 7.86907 18.4811 7.81023C18.4514 7.75138 18.4083 7.70033 18.3553 7.66118L9.86678 0.254934C9.86514 0.253283 9.86349 0.251638 9.86184 0.25C9.78354 0.170812 9.69031 0.107943 9.58754 0.0650302C9.48478 0.0221175 9.37452 1.42852e-05 9.26316 0Z"/>
</svg>
