<svg width="18" height="18" viewBox="0 0 18 18" fill="none" xmlns="http://www.w3.org/2000/svg">
<path d="M12.3756 0.00717575L7.60422 0.0306039C7.76118 0.0745319 8.12074 0.147745 8.38043 0.59288L10.7319 4.80995L9.45343 5.58308L13.6541 5.55965L15.7088 1.858L14.4303 2.63113L13.1975 0.428883C13.0662 0.147745 12.8665 -0.0396806 12.3756 0.00717575ZM6.71386 0.171173C6.07748 0.130174 5.34408 0.358598 4.79617 1.13173L4.75051 1.20201L2.99262 4.31796L6.64537 6.49678L8.95118 2.39685L8.06082 0.827161C7.88674 0.531381 7.35024 0.212172 6.71386 0.171173ZM16.0056 5.44251L12.3528 7.62133L14.6358 11.6978H16.4165C17.0786 11.6832 18.5482 10.3946 17.7863 8.65217L17.7634 8.55845L16.0056 5.44251ZM0.0932452 6.33278L1.37171 7.10591L0.138905 9.28473C-0.0180499 9.53658 -0.0893926 9.806 0.184564 10.2219L2.60451 14.4858C2.56171 14.3101 2.45041 13.944 2.69583 13.5018L5.07012 9.28473L6.37142 10.0579L4.24825 6.33278H0.0932452ZM11.5994 10.5733L9.52192 14.2984L11.5766 18L11.5994 16.4537H14.065C14.3533 16.483 14.6187 16.4186 14.8184 15.9618L17.2155 11.6978C17.1014 11.815 16.8274 12.0815 16.3252 12.0961H11.5994V10.5733ZM3.92864 12.0961L3.03828 13.6658C2.72152 14.272 3.07538 16.2136 4.93315 16.4069L5.02446 16.4303H8.54024V12.0961H3.92864Z" fill="black" fill-opacity="0.5"/>
</svg>
