<svg width="17" height="18" viewBox="0 0 17 18" 
  xmlns="http://www.w3.org/2000/svg">
  <path d="M15.1557 0.849057H10.7406L9.97641 0H6.15566L5.39151 0.849057H0.891509C0.655066 0.849057 0.428307 0.942983 0.261117 1.11017C0.0939266 1.27736 0 1.50412 0 1.74057C0 1.97701 0.0939266 2.20377 0.261117 2.37096C0.428307 2.53815 0.655066 2.63208 0.891509 2.63208H15.1557C15.3921 2.63208 15.6189 2.53815 15.7861 2.37096C15.9532 2.20377 16.0472 1.97701 16.0472 1.74057C16.0472 1.50412 15.9532 1.27736 15.7861 1.11017C15.6189 0.942983 15.3921 0.849057 15.1557 0.849057Z" />
  <path d="M2.92926 16.8427C2.97737 17.1639 3.13897 17.4573 3.38477 17.6696C3.63056 17.8819 3.94429 17.9991 4.26908 18H11.8562C12.1833 18.0005 12.4996 17.8829 12.747 17.6689C12.9944 17.4549 13.1562 17.1589 13.2028 16.8351L14.9859 4.4151H1.06134L2.92926 16.8427ZM8.87266 7.17453C8.87266 6.91557 8.97553 6.66722 9.15865 6.4841C9.34176 6.30099 9.59011 6.19812 9.84908 6.19812C10.108 6.19812 10.3564 6.30099 10.5395 6.4841C10.7226 6.66722 10.8255 6.91557 10.8255 7.17453V14.3915C10.8255 14.6505 10.7226 14.8988 10.5395 15.0819C10.3564 15.2651 10.108 15.3679 9.84908 15.3679H8.87266V7.17453ZM5.22172 7.17453C5.22172 6.91557 5.32459 6.66722 5.5077 6.4841C5.69082 6.30099 5.93917 6.19812 6.19813 6.19812C6.45709 6.19812 6.70545 6.30099 6.88856 6.4841C7.07168 6.66722 7.17455 6.91557 7.17455 7.17453V15.3679H6.19813C5.93917 15.3679 5.69082 15.2651 5.5077 15.0819C5.32459 14.8988 5.22172 14.6505 5.22172 14.3915V7.17453Z" />
</svg>
