<svg width="28" height="20" viewBox="0 0 28 20" fill="none" 
  xmlns="http://www.w3.org/2000/svg">
  <path d="M20.5495 14.2857C20.8755 14.2857 21.1942 14.3824 21.4652 14.5635C21.7363 14.7446 21.9476 15.002 22.0723 15.3032C22.1971 15.6044 22.2297 15.9359 22.1661 16.2556C22.1025 16.5754 21.9455 16.8691 21.715 17.0996C21.4845 17.3301 21.1908 17.4871 20.871 17.5507C20.5513 17.6143 20.2199 17.5817 19.9187 17.4569C19.6175 17.3322 19.36 17.1209 19.1789 16.8498C18.9978 16.5787 18.9011 16.2601 18.9011 15.934C18.9011 15.4969 19.0748 15.0776 19.3839 14.7685C19.693 14.4594 20.1123 14.2857 20.5495 14.2857ZM20.5495 11.8681C19.7453 11.8681 18.9592 12.1066 18.2905 12.5533C17.6219 13.0001 17.1008 13.6351 16.793 14.3781C16.4853 15.121 16.4048 15.9385 16.5616 16.7273C16.7185 17.516 17.1058 18.2405 17.6744 18.8091C18.243 19.3777 18.9675 19.765 19.7562 19.9218C20.5449 20.0787 21.3625 19.9982 22.1054 19.6905C22.8484 19.3827 23.4834 18.8616 23.9302 18.1929C24.3769 17.5243 24.6154 16.7382 24.6154 15.934C24.6154 14.8557 24.187 13.8215 23.4245 13.059C22.662 12.2965 21.6278 11.8681 20.5495 11.8681Z" />
  <path d="M6.59341 14.2857C6.91942 14.2857 7.23811 14.3824 7.50918 14.5635C7.78025 14.7446 7.99153 15.002 8.11629 15.3032C8.24105 15.6044 8.27369 15.9359 8.21009 16.2556C8.14648 16.5754 7.98949 16.8691 7.75897 17.0996C7.52844 17.3301 7.23473 17.4871 6.91498 17.5507C6.59524 17.6143 6.26381 17.5817 5.96261 17.4569C5.66141 17.3322 5.40398 17.1209 5.22285 16.8498C5.04173 16.5787 4.94505 16.2601 4.94505 15.934C4.94505 15.4969 5.11872 15.0776 5.42785 14.7685C5.73697 14.4594 6.15624 14.2857 6.59341 14.2857ZM6.59341 11.8681C5.78924 11.8681 5.00313 12.1066 4.3345 12.5533C3.66586 13.0001 3.14471 13.6351 2.83697 14.3781C2.52923 15.121 2.44871 15.9385 2.6056 16.7273C2.76248 17.516 3.14973 18.2405 3.71836 18.8091C4.28699 19.3777 5.01147 19.765 5.80018 19.9218C6.5889 20.0787 7.40642 19.9982 8.14937 19.6905C8.89232 19.3827 9.52734 18.8616 9.97411 18.1929C10.4209 17.5243 10.6593 16.7382 10.6593 15.934C10.6593 14.8557 10.231 13.8215 9.46846 13.059C8.70595 12.2965 7.67176 11.8681 6.59341 11.8681Z" />
  <path d="M26.7758 9.57802L24.0791 5.15824C23.7731 4.65685 23.3433 4.24253 22.8311 3.95504C22.3188 3.66754 21.7413 3.51653 21.1538 3.51648H15.2747V1.75824C15.2747 1.29193 15.0895 0.844712 14.7597 0.514977C14.43 0.185243 13.9828 0 13.5165 0H1.75824C1.29193 0 0.844712 0.185243 0.514977 0.514977C0.185243 0.844712 0 1.29193 0 1.75824V14.7253C0 15.1916 0.185243 15.6388 0.514977 15.9685C0.844712 16.2983 1.29193 16.4835 1.75824 16.4835H2.56593C2.54033 16.3015 2.52747 16.1179 2.52747 15.9341C2.52747 14.8557 2.95585 13.8215 3.71836 13.059C4.48087 12.2965 5.51505 11.8681 6.59341 11.8681C7.67176 11.8681 8.70595 12.2965 9.46846 13.059C10.231 13.8215 10.6593 14.8557 10.6593 15.9341C10.6593 16.1179 10.6465 16.3015 10.6209 16.4835H16.522C16.4964 16.3015 16.4835 16.1179 16.4835 15.9341C16.4829 15.2838 16.6389 14.643 16.9385 14.0659H15.2747V5.93407H21.1538C21.3267 5.93475 21.4966 5.97951 21.6473 6.06412C21.7981 6.14872 21.9247 6.27038 22.0154 6.41758L24.6154 10.6791V14.0659H24.1604C24.46 14.643 24.616 15.2838 24.6154 15.9341C24.6154 16.1179 24.6025 16.3015 24.5769 16.4835H25.2747C25.741 16.4835 26.1883 16.2983 26.518 15.9685C26.8477 15.6388 27.033 15.1916 27.033 14.7253V10.4945C27.0331 10.1712 26.9442 9.85406 26.7758 9.57802ZM6.04396 10.2198C6.04396 10.3364 5.99765 10.4482 5.91521 10.5306C5.83278 10.613 5.72097 10.6593 5.6044 10.6593H3.84615C3.72958 10.6593 3.61777 10.613 3.53534 10.5306C3.4529 10.4482 3.40659 10.3364 3.40659 10.2198V5.16483C3.40659 5.04826 3.4529 4.93645 3.53534 4.85402C3.61777 4.77158 3.72958 4.72527 3.84615 4.72527H5.6044C5.72097 4.72527 5.83278 4.77158 5.91521 4.85402C5.99765 4.93645 6.04396 5.04826 6.04396 5.16483V10.2198ZM11.978 10.2198C11.978 10.3364 11.9317 10.4482 11.8493 10.5306C11.7668 10.613 11.655 10.6593 11.5385 10.6593H9.78022C9.66364 10.6593 9.55184 10.613 9.4694 10.5306C9.38697 10.4482 9.34066 10.3364 9.34066 10.2198V5.16483C9.34066 5.04826 9.38697 4.93645 9.4694 4.85402C9.55184 4.77158 9.66364 4.72527 9.78022 4.72527H11.5385C11.655 4.72527 11.7668 4.77158 11.8493 4.85402C11.9317 4.93645 11.978 5.04826 11.978 5.16483V10.2198Z" />
</svg>
