<svg xmlns="http://www.w3.org/2000/svg" viewBox="0 0 178.92 194.06"><defs><style>.cls-1{fill-rule:evenodd;}</style></defs><title>Cefet LOGO</title><g id="Cefet_LOGO" data-name="Cefet LOGO"><path class="cls-1" d="M231.57,159.26l-16.52,48.32H166.54c13.59-26.22,36.82-42.32,65-48.32Z" transform="translate(-166.54 -158.97)"/><path class="cls-1" d="M240.86,159.25l85-.28c23.93,10,20.95,34.71,16.67,46.78l-.14.12-70,.16L221.76,352.51c-26.25-7.62-36.45-31.22-31-50.37l50.06-142.89Z" transform="translate(-166.54 -158.97)"/><path class="cls-1" d="M274.16,230.41h47.42c7.74,1.09,8.55,6.46,8.47,10.09l-11.27,30.31a19,19,0,0,1-14,9.24h-49l18.33-49.63Z" transform="translate(-166.54 -158.97)"/><path class="cls-1" d="M246,306.77l60.85-.42C281.93,344.58,242.43,353.28,230,353l16-46.26Z" transform="translate(-166.54 -158.97)"/></g></svg>