<svg xmlns="http://www.w3.org/2000/svg" viewBox="0 0 329.24 321.51"><title>Reciclagem Cutout LOGO</title><g id="Reciclagem_BG" data-name="Reciclagem BG"><path d="M208.25,98.41c-13.32,0-24.21,6.32-30.88,17.91l-31.94,55.1,23.83,13.85c14.66-18,35.06-30.29,59.52-35.64a16.5,16.5,0,0,1,3.45-.37h8.62l7,0,6-10.47-11.93-20C233.89,105.09,222.65,98.41,208.25,98.41ZM249,114.2l20.11,35,55.46-.19h.05a15.94,15.94,0,0,1,6.6,1.42c10.39,4.74,17,12.14,20.69,20.7l24.49-43.9-23.15,13.69-21.41-36.49c-3.53-6-9.49-9.15-17.21-9.15H228.27C236.7,98.76,243.72,105.09,249,114.2ZM304.15,290l-4.29,7.17a15.84,15.84,0,0,1,7,4.61v-12l-.25,0a16.18,16.18,0,0,1-2.26.15Zm-74.33,73h-.42l-7.54-.47a16.52,16.52,0,0,1-3.7-.67l-10.29-3.15.25-.86c-19.8-10-28.81-28.42-28.73-45.7H163l-11.22,20c-3.51,6-6,15.45-6,21.06a36.69,36.69,0,0,0,36.49,36.5h63.9V360.9A72.47,72.47,0,0,1,230.46,363ZM415.69,249.69l-31.93-55.11L332.25,224c4.69,3.23,7.48,8.38,7.78,14.82a15.76,15.76,0,0,1-1,6.23l-6,16.06,25.07,43.36h23.18a44.24,44.24,0,0,0,20-4.58c11.22-6.31,19.3-19.64,19.3-32.28A36,36,0,0,0,415.69,249.69ZM382,312.87h-71.1a16,16,0,0,1-3.73,9.87,114.4,114.4,0,0,1-38.55,30.16l38.24,63.86v-27H348a19.44,19.44,0,0,0,17.18-9.47l43.53-75.81c-7.36,5.61-16.15,8.42-26.66,8.42Zm-200.78-48.8L191.48,270l3.59-10.26-24-43.32a16,16,0,0,1-7-5.57l-72.65,1.34,23.52,13.33L93.83,262.33a21,21,0,0,0-2.45,9.47,19.67,19.67,0,0,0,2.45,9.13l43.88,75.46a36.46,36.46,0,0,1-.35-5.61c0-6,2.8-15.46,6.31-21.76Z" transform="translate(-91.38 -95.24)"/></g></svg>